<?xml version="1.0" encoding="utf-8"?>
<!-- Generator: Adobe Illustrator 24.3.0, SVG Export Plug-In . SVG Version: 6.00 Build 0)  -->
<svg version="1.1" id="Слой_1" xmlns="http://www.w3.org/2000/svg" xmlns:xlink="http://www.w3.org/1999/xlink" x="0px" y="0px"
	 viewBox="0 0 1920 1080" style="enable-background:new 0 0 1920 1080;" xml:space="preserve">
<style type="text/css">
	.st0{fill:#101E41;}
	.st1{opacity:0.75;}
	.st2{fill:#18264D;}
	.st3{fill:#FFFFFF;}
	.st4{fill:#18266E;stroke:#FFFFFF;stroke-width:4;stroke-miterlimit:10;}
	.st5{fill:#F82E80;stroke:#18264D;stroke-miterlimit:10;}
	.st6{fill:#FFFFFF;stroke:#FFFFFF;stroke-miterlimit:10;}
</style>
<g>
	<g>
		<rect x="0.5" y="0.5" class="st0" width="1919" height="1079"/>
		<path d="M1919,1v1078H1V1H1919 M1920,0H0v1080h1920V0L1920,0z"/>
	</g>
	<g class="st1">
		<g>
			<g>
				<circle class="st2" cx="324" cy="160" r="64.5"/>
				<path class="st3" d="M324,96c35.3,0,64,28.7,64,64s-28.7,64-64,64s-64-28.7-64-64S288.7,96,324,96 M324,95
					c-35.9,0-65,29.1-65,65s29.1,65,65,65s65-29.1,65-65S359.9,95,324,95L324,95z"/>
			</g>
		</g>
		<g>
			<g>
				<path class="st3" d="M292.7,193.4v-9.7h1.7c1.3,0,2.5-0.3,3.6-1c1.1-0.7,1.9-2.2,2.6-4.6l1.8-6.7c0.7-2.6,1.6-4.5,2.7-5.8
					c1.1-1.3,2.3-2.2,3.7-2.7c1.4-0.5,2.9-0.7,4.6-0.7h9.8l0.3,3.8c-2.8,0-5,0.2-6.5,0.7c-1.5,0.5-2.6,1.2-3.3,2.2
					c-0.7,1-1.2,2.2-1.6,3.8l-2.6,10.5c-0.8,3.2-2.2,5.7-4.1,7.6c-2,1.9-5.3,2.8-10.1,2.8H292.7z M317.9,161c-1.3,0-3-0.1-4.9-0.2
					c-2-0.1-4-0.5-6.1-1c-2.1-0.6-4.1-1.5-5.9-2.8s-3.3-3.2-4.5-5.6c-1.1-2.4-1.7-5.5-1.7-9.2c0-6.9,2.2-12.3,6.5-16.1
					c4.3-3.8,10.2-5.7,17.7-5.7h16l-1.2,9.7h-14.8c-4.1,0-7.3,1.1-9.8,3.2c-2.4,2.1-3.7,5.3-3.7,9.6c0,4.1,1.2,7.4,3.7,9.8
					c2.4,2.4,5.7,3.6,9.8,3.6h15v4.7H317.9z M314.6,166l-0.3-9.7H335v9.7H314.6z M333.2,193.2v-72.8h10.3v72.8H333.2z"/>
			</g>
		</g>
	</g>
	<g class="st1">
		<g>
			<g>
				
					<ellipse transform="matrix(0.9732 -0.2298 0.2298 0.9732 -128.3868 67.344)" class="st2" cx="225" cy="585" rx="64.5" ry="64.5"/>
				<path class="st3" d="M225,521c35.3,0,64,28.7,64,64s-28.7,64-64,64s-64-28.7-64-64S189.7,521,225,521 M225,520
					c-35.9,0-65,29.1-65,65s29.1,65,65,65c35.9,0,65-29.1,65-65S260.9,520,225,520L225,520z"/>
			</g>
		</g>
		<g>
			<g>
				<path class="st3" d="M193.7,618.4v-9.7h1.7c1.3,0,2.5-0.3,3.6-1c1.1-0.7,1.9-2.2,2.6-4.6l1.8-6.7c0.7-2.6,1.6-4.5,2.7-5.8
					c1.1-1.3,2.3-2.2,3.7-2.7c1.4-0.5,2.9-0.7,4.6-0.7h9.8l0.3,3.8c-2.8,0-5,0.2-6.5,0.7c-1.5,0.5-2.6,1.2-3.3,2.2
					c-0.7,1-1.2,2.2-1.6,3.8l-2.6,10.5c-0.8,3.2-2.2,5.7-4.1,7.6c-2,1.9-5.3,2.8-10.1,2.8H193.7z M218.9,586c-1.3,0-3-0.1-4.9-0.2
					c-2-0.1-4-0.5-6.1-1c-2.1-0.6-4.1-1.5-5.9-2.8s-3.3-3.2-4.5-5.6c-1.1-2.4-1.7-5.5-1.7-9.2c0-6.9,2.2-12.3,6.5-16.1
					c4.3-3.8,10.2-5.7,17.7-5.7h16l-1.2,9.7h-14.8c-4.1,0-7.3,1.1-9.8,3.2c-2.4,2.1-3.7,5.3-3.7,9.6c0,4.1,1.2,7.4,3.7,9.8
					c2.4,2.4,5.7,3.6,9.8,3.6h15v4.7H218.9z M215.6,591l-0.3-9.7H236v9.7H215.6z M234.2,618.2v-72.8h10.3v72.8H234.2z"/>
			</g>
		</g>
	</g>
	<g class="st1">
		<g>
			<g>
				
					<ellipse transform="matrix(0.9732 -0.2298 0.2298 0.9732 -184.6169 114.4102)" class="st2" cx="399" cy="850" rx="64.5" ry="64.5"/>
				<path class="st3" d="M399,786c35.3,0,64,28.7,64,64s-28.7,64-64,64s-64-28.7-64-64S363.7,786,399,786 M399,785
					c-35.9,0-65,29.1-65,65s29.1,65,65,65c35.9,0,65-29.1,65-65S434.9,785,399,785L399,785z"/>
			</g>
		</g>
		<g>
			<g>
				<path class="st3" d="M367.7,883.4v-9.7h1.7c1.3,0,2.5-0.3,3.6-1c1.1-0.7,1.9-2.2,2.6-4.6l1.8-6.7c0.7-2.6,1.6-4.5,2.7-5.8
					c1.1-1.3,2.3-2.2,3.7-2.7c1.4-0.5,2.9-0.7,4.6-0.7h9.8l0.3,3.8c-2.8,0-5,0.2-6.5,0.7c-1.5,0.5-2.6,1.2-3.3,2.2
					c-0.7,1-1.2,2.2-1.6,3.8l-2.6,10.5c-0.8,3.2-2.2,5.7-4.1,7.6c-2,1.9-5.3,2.8-10.1,2.8H367.7z M392.9,851c-1.3,0-3-0.1-4.9-0.2
					c-2-0.1-4-0.5-6.1-1c-2.1-0.6-4.1-1.5-5.9-2.8s-3.3-3.2-4.5-5.6c-1.1-2.4-1.7-5.5-1.7-9.2c0-6.9,2.2-12.3,6.5-16.1
					c4.3-3.8,10.2-5.7,17.7-5.7h16l-1.2,9.7h-14.8c-4.1,0-7.3,1.1-9.8,3.2c-2.4,2.1-3.7,5.3-3.7,9.6c0,4.1,1.2,7.4,3.7,9.8
					c2.4,2.4,5.7,3.6,9.8,3.6h15v4.7H392.9z M389.6,856l-0.3-9.7H410v9.7H389.6z M408.2,883.2v-72.8h10.3v72.8H408.2z"/>
			</g>
		</g>
	</g>
	<g class="st1">
		<g>
			<g>
				
					<ellipse transform="matrix(0.9732 -0.2298 0.2298 0.9732 -78.2411 136.0232)" class="st2" cx="545" cy="404" rx="64.5" ry="64.5"/>
				<path class="st3" d="M545,340c35.3,0,64,28.7,64,64s-28.7,64-64,64s-64-28.7-64-64S509.7,340,545,340 M545,339
					c-35.9,0-65,29.1-65,65s29.1,65,65,65s65-29.1,65-65S580.9,339,545,339L545,339z"/>
			</g>
		</g>
		<g>
			<g>
				<path class="st3" d="M513.7,437.4v-9.7h1.7c1.3,0,2.5-0.3,3.6-1c1.1-0.7,1.9-2.2,2.6-4.6l1.8-6.7c0.7-2.6,1.6-4.5,2.7-5.8
					c1.1-1.3,2.3-2.2,3.7-2.7c1.4-0.5,2.9-0.7,4.6-0.7h9.8l0.3,3.8c-2.8,0-5,0.2-6.5,0.7c-1.5,0.5-2.6,1.2-3.3,2.2
					c-0.7,1-1.2,2.2-1.6,3.8l-2.6,10.5c-0.8,3.2-2.2,5.7-4.1,7.6c-2,1.9-5.3,2.8-10.1,2.8H513.7z M538.9,405c-1.3,0-3-0.1-4.9-0.2
					c-2-0.1-4-0.5-6.1-1c-2.1-0.6-4.1-1.5-5.9-2.8s-3.3-3.2-4.5-5.6c-1.1-2.4-1.7-5.5-1.7-9.2c0-6.9,2.2-12.3,6.5-16.1
					c4.3-3.8,10.2-5.7,17.7-5.7h16l-1.2,9.7h-14.8c-4.1,0-7.3,1.1-9.8,3.2c-2.4,2.1-3.7,5.3-3.7,9.6c0,4.1,1.2,7.4,3.7,9.8
					c2.4,2.4,5.7,3.6,9.8,3.6h15v4.7H538.9z M535.6,410l-0.3-9.7H556v9.7H535.6z M554.2,437.2v-72.8h10.3v72.8H554.2z"/>
			</g>
		</g>
	</g>
	<g class="st1">
		<g>
			<g>
				
					<ellipse transform="matrix(0.9732 -0.2298 0.2298 0.9732 -13.7214 174.1531)" class="st2" cx="741" cy="146" rx="64.5" ry="64.5"/>
				<path class="st3" d="M741,82c35.3,0,64,28.7,64,64s-28.7,64-64,64s-64-28.7-64-64S705.7,82,741,82 M741,81
					c-35.9,0-65,29.1-65,65s29.1,65,65,65c35.9,0,65-29.1,65-65S776.9,81,741,81L741,81z"/>
			</g>
		</g>
		<g>
			<g>
				<path class="st3" d="M709.7,179.4v-9.7h1.7c1.3,0,2.5-0.3,3.6-1c1.1-0.7,1.9-2.2,2.6-4.6l1.8-6.7c0.7-2.6,1.6-4.5,2.7-5.8
					c1.1-1.3,2.3-2.2,3.7-2.7c1.4-0.5,2.9-0.7,4.6-0.7h9.8l0.3,3.8c-2.8,0-5,0.2-6.5,0.7c-1.5,0.5-2.6,1.2-3.3,2.2
					c-0.7,1-1.2,2.2-1.6,3.8l-2.6,10.5c-0.8,3.2-2.2,5.7-4.1,7.6c-2,1.9-5.3,2.8-10.1,2.8H709.7z M734.9,147c-1.3,0-3-0.1-4.9-0.2
					c-2-0.1-4-0.5-6.1-1c-2.1-0.6-4.1-1.5-5.9-2.8s-3.3-3.2-4.5-5.6c-1.1-2.4-1.7-5.5-1.7-9.2c0-6.9,2.2-12.3,6.5-16.1
					c4.3-3.8,10.2-5.7,17.7-5.7h16l-1.2,9.7h-14.8c-4.1,0-7.3,1.1-9.8,3.2c-2.4,2.1-3.7,5.3-3.7,9.6c0,4.1,1.2,7.4,3.7,9.8
					c2.4,2.4,5.7,3.6,9.8,3.6h15v4.7H734.9z M731.6,152l-0.3-9.7H752v9.7H731.6z M750.2,179.2v-72.8h10.3v72.8H750.2z"/>
			</g>
		</g>
	</g>
	<g class="st1">
		<g>
			<g>
				
					<ellipse transform="matrix(0.9732 -0.2298 0.2298 0.9732 -76.5789 34.299)" class="st2" cx="109" cy="346" rx="64.5" ry="64.5"/>
				<path class="st3" d="M109,282c35.3,0,64,28.7,64,64s-28.7,64-64,64s-64-28.7-64-64S73.7,282,109,282 M109,281
					c-35.9,0-65,29.1-65,65s29.1,65,65,65c35.9,0,65-29.1,65-65S144.9,281,109,281L109,281z"/>
			</g>
		</g>
		<g>
			<g>
				<path class="st3" d="M77.7,379.4v-9.7h1.7c1.3,0,2.5-0.3,3.6-1c1.1-0.7,1.9-2.2,2.6-4.6l1.8-6.7c0.7-2.6,1.6-4.5,2.7-5.8
					c1.1-1.3,2.3-2.2,3.7-2.7c1.4-0.5,2.9-0.7,4.6-0.7h9.8l0.3,3.8c-2.8,0-5,0.2-6.5,0.7c-1.5,0.5-2.6,1.2-3.3,2.2
					c-0.7,1-1.2,2.2-1.6,3.8l-2.6,10.5c-0.8,3.2-2.2,5.7-4.1,7.6c-2,1.9-5.3,2.8-10.1,2.8H77.7z M102.9,347c-1.3,0-3-0.1-4.9-0.2
					c-2-0.1-4-0.5-6.1-1c-2.1-0.6-4.1-1.5-5.9-2.8s-3.3-3.2-4.5-5.6c-1.1-2.4-1.7-5.5-1.7-9.2c0-6.9,2.2-12.3,6.5-16.1
					c4.3-3.8,10.2-5.7,17.7-5.7h16l-1.2,9.7h-14.8c-4.1,0-7.3,1.1-9.8,3.2c-2.4,2.1-3.7,5.3-3.7,9.6c0,4.1,1.2,7.4,3.7,9.8
					c2.4,2.4,5.7,3.6,9.8,3.6h15v4.7H102.9z M99.6,352l-0.3-9.7H120v9.7H99.6z M118.2,379.2v-72.8h10.3v72.8H118.2z"/>
			</g>
		</g>
	</g>
	<g class="st1">
		<g>
			<g>
				
					<ellipse transform="matrix(0.9732 -0.2298 0.2298 0.9732 -143.0883 157.08)" class="st2" cx="603" cy="693" rx="64.5" ry="64.5"/>
				<path class="st3" d="M603,629c35.3,0,64,28.7,64,64s-28.7,64-64,64s-64-28.7-64-64S567.7,629,603,629 M603,628
					c-35.9,0-65,29.1-65,65s29.1,65,65,65c35.9,0,65-29.1,65-65S638.9,628,603,628L603,628z"/>
			</g>
		</g>
		<g>
			<g>
				<path class="st3" d="M571.7,726.4v-9.7h1.7c1.3,0,2.5-0.3,3.6-1c1.1-0.7,1.9-2.2,2.6-4.6l1.8-6.7c0.7-2.6,1.6-4.5,2.7-5.8
					c1.1-1.3,2.3-2.2,3.7-2.7c1.4-0.5,2.9-0.7,4.6-0.7h9.8l0.3,3.8c-2.8,0-5,0.2-6.5,0.7c-1.5,0.5-2.6,1.2-3.3,2.2
					c-0.7,1-1.2,2.2-1.6,3.8l-2.6,10.5c-0.8,3.2-2.2,5.7-4.1,7.6c-2,1.9-5.3,2.8-10.1,2.8H571.7z M596.9,694c-1.3,0-3-0.1-4.9-0.2
					c-2-0.1-4-0.5-6.1-1c-2.1-0.6-4.1-1.5-5.9-2.8s-3.3-3.2-4.5-5.6c-1.1-2.4-1.7-5.5-1.7-9.2c0-6.9,2.2-12.3,6.5-16.1
					c4.3-3.8,10.2-5.7,17.7-5.7h16l-1.2,9.7h-14.8c-4.1,0-7.3,1.1-9.8,3.2c-2.4,2.1-3.7,5.3-3.7,9.6c0,4.1,1.2,7.4,3.7,9.8
					c2.4,2.4,5.7,3.6,9.8,3.6h15v4.7H596.9z M593.6,699l-0.3-9.7H614v9.7H593.6z M612.2,726.2v-72.8h10.3v72.8H612.2z"/>
			</g>
		</g>
	</g>
	<g class="st1">
		<g>
			<g>
				
					<ellipse transform="matrix(0.9732 -0.2298 0.2298 0.9732 -68.8972 266.273)" class="st2" cx="1109" cy="429" rx="64.5" ry="64.5"/>
				<path class="st3" d="M1109,365c35.3,0,64,28.7,64,64s-28.7,64-64,64c-35.3,0-64-28.7-64-64S1073.7,365,1109,365 M1109,364
					c-35.9,0-65,29.1-65,65s29.1,65,65,65s65-29.1,65-65S1144.9,364,1109,364L1109,364z"/>
			</g>
		</g>
		<g>
			<g>
				<path class="st3" d="M1077.7,462.4v-9.7h1.7c1.3,0,2.5-0.3,3.6-1c1.1-0.7,1.9-2.2,2.6-4.6l1.8-6.7c0.7-2.6,1.6-4.5,2.7-5.8
					c1.1-1.3,2.3-2.2,3.7-2.7c1.4-0.5,2.9-0.7,4.6-0.7h9.8l0.3,3.8c-2.8,0-5,0.2-6.5,0.7c-1.5,0.5-2.6,1.2-3.3,2.2
					c-0.7,1-1.2,2.2-1.6,3.8l-2.6,10.5c-0.8,3.2-2.2,5.7-4.1,7.6c-2,1.9-5.3,2.8-10.1,2.8H1077.7z M1102.9,430c-1.3,0-3-0.1-4.9-0.2
					c-2-0.1-4-0.5-6.1-1c-2.1-0.6-4.1-1.5-5.9-2.8s-3.3-3.2-4.5-5.6c-1.1-2.4-1.7-5.5-1.7-9.2c0-6.9,2.2-12.3,6.5-16.1
					c4.3-3.8,10.2-5.7,17.7-5.7h16l-1.2,9.7h-14.8c-4.1,0-7.3,1.1-9.8,3.2c-2.4,2.1-3.7,5.3-3.7,9.6c0,4.1,1.2,7.4,3.7,9.8
					c2.4,2.4,5.7,3.6,9.8,3.6h15v4.7H1102.9z M1099.6,435l-0.3-9.7h20.7v9.7H1099.6z M1118.2,462.2v-72.8h10.3v72.8H1118.2z"/>
			</g>
		</g>
	</g>
	<g class="st1">
		<g>
			<g>
				
					<ellipse transform="matrix(0.9732 -0.2298 0.2298 0.9732 -10.897 264.4101)" class="st2" cx="1130" cy="179" rx="64.5" ry="64.5"/>
				<path class="st3" d="M1130,115c35.3,0,64,28.7,64,64s-28.7,64-64,64c-35.3,0-64-28.7-64-64S1094.7,115,1130,115 M1130,114
					c-35.9,0-65,29.1-65,65s29.1,65,65,65s65-29.1,65-65S1165.9,114,1130,114L1130,114z"/>
			</g>
		</g>
		<g>
			<g>
				<path class="st3" d="M1098.7,212.4v-9.7h1.7c1.3,0,2.5-0.3,3.6-1c1.1-0.7,1.9-2.2,2.6-4.6l1.8-6.7c0.7-2.6,1.6-4.5,2.7-5.8
					c1.1-1.3,2.3-2.2,3.7-2.7c1.4-0.5,2.9-0.7,4.6-0.7h9.8l0.3,3.8c-2.8,0-5,0.2-6.5,0.7c-1.5,0.5-2.6,1.2-3.3,2.2
					c-0.7,1-1.2,2.2-1.6,3.8l-2.6,10.5c-0.8,3.2-2.2,5.7-4.1,7.6c-2,1.9-5.3,2.8-10.1,2.8H1098.7z M1123.9,180c-1.3,0-3-0.1-4.9-0.2
					c-2-0.1-4-0.5-6.1-1c-2.1-0.6-4.1-1.5-5.9-2.8s-3.3-3.2-4.5-5.6c-1.1-2.4-1.7-5.5-1.7-9.2c0-6.9,2.2-12.3,6.5-16.1
					c4.3-3.8,10.2-5.7,17.7-5.7h16l-1.2,9.7h-14.8c-4.1,0-7.3,1.1-9.8,3.2c-2.4,2.1-3.7,5.3-3.7,9.6c0,4.1,1.2,7.4,3.7,9.8
					c2.4,2.4,5.7,3.6,9.8,3.6h15v4.7H1123.9z M1120.6,185l-0.3-9.7h20.7v9.7H1120.6z M1139.2,212.2v-72.8h10.3v72.8H1139.2z"/>
			</g>
		</g>
	</g>
	<g class="st1">
		<g>
			<g>
				
					<ellipse transform="matrix(0.9732 -0.2298 0.2298 0.9732 -127.3757 250.028)" class="st2" cx="1010" cy="672" rx="64.5" ry="64.5"/>
				<path class="st3" d="M1010,608c35.3,0,64,28.7,64,64s-28.7,64-64,64c-35.3,0-64-28.7-64-64S974.7,608,1010,608 M1010,607
					c-35.9,0-65,29.1-65,65s29.1,65,65,65s65-29.1,65-65S1045.9,607,1010,607L1010,607z"/>
			</g>
		</g>
		<g>
			<g>
				<path class="st3" d="M978.7,705.4v-9.7h1.7c1.3,0,2.5-0.3,3.6-1c1.1-0.7,1.9-2.2,2.6-4.6l1.8-6.7c0.7-2.6,1.6-4.5,2.7-5.8
					c1.1-1.3,2.3-2.2,3.7-2.7c1.4-0.5,2.9-0.7,4.6-0.7h9.8l0.3,3.8c-2.8,0-5,0.2-6.5,0.7c-1.5,0.5-2.6,1.2-3.3,2.2s-1.2,2.2-1.6,3.8
					l-2.6,10.5c-0.8,3.2-2.2,5.7-4.1,7.6c-2,1.9-5.3,2.8-10.1,2.8H978.7z M1003.9,673c-1.3,0-3-0.1-4.9-0.2c-2-0.1-4-0.5-6.1-1
					c-2.1-0.6-4.1-1.5-5.9-2.8s-3.3-3.2-4.5-5.6c-1.1-2.4-1.7-5.5-1.7-9.2c0-6.9,2.2-12.3,6.5-16.1c4.3-3.8,10.2-5.7,17.7-5.7h16
					l-1.2,9.7h-14.8c-4.1,0-7.3,1.1-9.8,3.2c-2.4,2.1-3.7,5.3-3.7,9.6c0,4.1,1.2,7.4,3.7,9.8c2.4,2.4,5.7,3.6,9.8,3.6h15v4.7H1003.9
					z M1000.6,678l-0.3-9.7h20.7v9.7H1000.6z M1019.2,705.2v-72.8h10.3v72.8H1019.2z"/>
			</g>
		</g>
	</g>
	<g class="st1">
		<g>
			<g>
				
					<ellipse transform="matrix(0.9732 -0.2298 0.2298 0.9732 -126.1565 326.4997)" class="st2" cx="1339" cy="705" rx="64.5" ry="64.5"/>
				<path class="st3" d="M1339,641c35.3,0,64,28.7,64,64s-28.7,64-64,64c-35.3,0-64-28.7-64-64S1303.7,641,1339,641 M1339,640
					c-35.9,0-65,29.1-65,65s29.1,65,65,65s65-29.1,65-65S1374.9,640,1339,640L1339,640z"/>
			</g>
		</g>
		<g>
			<g>
				<path class="st3" d="M1307.7,738.4v-9.7h1.7c1.3,0,2.5-0.3,3.6-1c1.1-0.7,1.9-2.2,2.6-4.6l1.8-6.7c0.7-2.6,1.6-4.5,2.7-5.8
					c1.1-1.3,2.3-2.2,3.7-2.7c1.4-0.5,2.9-0.7,4.6-0.7h9.8l0.3,3.8c-2.8,0-5,0.2-6.5,0.7c-1.5,0.5-2.6,1.2-3.3,2.2s-1.2,2.2-1.6,3.8
					l-2.6,10.5c-0.8,3.2-2.2,5.7-4.1,7.6c-2,1.9-5.3,2.8-10.1,2.8H1307.7z M1332.9,706c-1.3,0-3-0.1-4.9-0.2c-2-0.1-4-0.5-6.1-1
					c-2.1-0.6-4.1-1.5-5.9-2.8s-3.3-3.2-4.5-5.6c-1.1-2.4-1.7-5.5-1.7-9.2c0-6.9,2.2-12.3,6.5-16.1c4.3-3.8,10.2-5.7,17.7-5.7h16
					l-1.2,9.7h-14.8c-4.1,0-7.3,1.1-9.8,3.2c-2.4,2.1-3.7,5.3-3.7,9.6c0,4.1,1.2,7.4,3.7,9.8c2.4,2.4,5.7,3.6,9.8,3.6h15v4.7H1332.9
					z M1329.6,711l-0.3-9.7h20.7v9.7H1329.6z M1348.2,738.2v-72.8h10.3v72.8H1348.2z"/>
			</g>
		</g>
	</g>
	<g class="st1">
		<g>
			<g>
				
					<ellipse transform="matrix(0.9732 -0.2298 0.2298 0.9732 -28.7677 314.9275)" class="st2" cx="1338" cy="281" rx="64.5" ry="64.5"/>
				<path class="st3" d="M1338,217c35.3,0,64,28.7,64,64s-28.7,64-64,64c-35.3,0-64-28.7-64-64S1302.7,217,1338,217 M1338,216
					c-35.9,0-65,29.1-65,65s29.1,65,65,65s65-29.1,65-65S1373.9,216,1338,216L1338,216z"/>
			</g>
		</g>
		<g>
			<g>
				<path class="st3" d="M1306.7,314.4v-9.7h1.7c1.3,0,2.5-0.3,3.6-1c1.1-0.7,1.9-2.2,2.6-4.6l1.8-6.7c0.7-2.6,1.6-4.5,2.7-5.8
					c1.1-1.3,2.3-2.2,3.7-2.7c1.4-0.5,2.9-0.7,4.6-0.7h9.8l0.3,3.8c-2.8,0-5,0.2-6.5,0.7c-1.5,0.5-2.6,1.2-3.3,2.2
					c-0.7,1-1.2,2.2-1.6,3.8l-2.6,10.5c-0.8,3.2-2.2,5.7-4.1,7.6c-2,1.9-5.3,2.8-10.1,2.8H1306.7z M1331.9,282c-1.3,0-3-0.1-4.9-0.2
					c-2-0.1-4-0.5-6.1-1c-2.1-0.6-4.1-1.5-5.9-2.8s-3.3-3.2-4.5-5.6c-1.1-2.4-1.7-5.5-1.7-9.2c0-6.9,2.2-12.3,6.5-16.1
					c4.3-3.8,10.2-5.7,17.7-5.7h16l-1.2,9.7h-14.8c-4.1,0-7.3,1.1-9.8,3.2c-2.4,2.1-3.7,5.3-3.7,9.6c0,4.1,1.2,7.4,3.7,9.8
					c2.4,2.4,5.7,3.6,9.8,3.6h15v4.7H1331.9z M1328.6,287l-0.3-9.7h20.7v9.7H1328.6z M1347.2,314.2v-72.8h10.3v72.8H1347.2z"/>
			</g>
		</g>
	</g>
	<g class="st1">
		<g>
			<g>
				
					<ellipse transform="matrix(0.9732 -0.2298 0.2298 0.9732 -185.033 292.8359)" class="st2" cx="1165" cy="941" rx="64.5" ry="64.5"/>
				<path class="st3" d="M1165,877c35.3,0,64,28.7,64,64s-28.7,64-64,64c-35.3,0-64-28.7-64-64S1129.7,877,1165,877 M1165,876
					c-35.9,0-65,29.1-65,65s29.1,65,65,65s65-29.1,65-65S1200.9,876,1165,876L1165,876z"/>
			</g>
		</g>
		<g>
			<g>
				<path class="st3" d="M1133.7,974.4v-9.7h1.7c1.3,0,2.5-0.3,3.6-1c1.1-0.7,1.9-2.2,2.6-4.6l1.8-6.7c0.7-2.6,1.6-4.5,2.7-5.8
					c1.1-1.3,2.3-2.2,3.7-2.7c1.4-0.5,2.9-0.7,4.6-0.7h9.8l0.3,3.8c-2.8,0-5,0.2-6.5,0.7c-1.5,0.5-2.6,1.2-3.3,2.2s-1.2,2.2-1.6,3.8
					l-2.6,10.5c-0.8,3.2-2.2,5.7-4.1,7.6c-2,1.9-5.3,2.8-10.1,2.8H1133.7z M1158.9,942c-1.3,0-3-0.1-4.9-0.2c-2-0.1-4-0.5-6.1-1
					c-2.1-0.6-4.1-1.5-5.9-2.8s-3.3-3.2-4.5-5.6c-1.1-2.4-1.7-5.5-1.7-9.2c0-6.9,2.2-12.3,6.5-16.1c4.3-3.8,10.2-5.7,17.7-5.7h16
					l-1.2,9.7h-14.8c-4.1,0-7.3,1.1-9.8,3.2c-2.4,2.1-3.7,5.3-3.7,9.6c0,4.1,1.2,7.4,3.7,9.8c2.4,2.4,5.7,3.6,9.8,3.6h15v4.7H1158.9
					z M1155.6,947l-0.3-9.7h20.7v9.7H1155.6z M1174.2,974.2v-72.8h10.3v72.8H1174.2z"/>
			</g>
		</g>
	</g>
	<g class="st1">
		<g>
			<g>
				
					<ellipse transform="matrix(0.9732 -0.2298 0.2298 0.9732 -200.5787 173.3215)" class="st2" cx="644" cy="948" rx="64.5" ry="64.5"/>
				<path class="st3" d="M644,884c35.3,0,64,28.7,64,64s-28.7,64-64,64s-64-28.7-64-64S608.7,884,644,884 M644,883
					c-35.9,0-65,29.1-65,65s29.1,65,65,65c35.9,0,65-29.1,65-65S679.9,883,644,883L644,883z"/>
			</g>
		</g>
		<g>
			<g>
				<path class="st3" d="M612.7,981.4v-9.7h1.7c1.3,0,2.5-0.3,3.6-1c1.1-0.7,1.9-2.2,2.6-4.6l1.8-6.7c0.7-2.6,1.6-4.5,2.7-5.8
					c1.1-1.3,2.3-2.2,3.7-2.7c1.4-0.5,2.9-0.7,4.6-0.7h9.8l0.3,3.8c-2.8,0-5,0.2-6.5,0.7c-1.5,0.5-2.6,1.2-3.3,2.2
					c-0.7,1-1.2,2.2-1.6,3.8l-2.6,10.5c-0.8,3.2-2.2,5.7-4.1,7.6c-2,1.9-5.3,2.8-10.1,2.8H612.7z M637.9,949c-1.3,0-3-0.1-4.9-0.2
					c-2-0.1-4-0.5-6.1-1c-2.1-0.6-4.1-1.5-5.9-2.8s-3.3-3.2-4.5-5.6c-1.1-2.4-1.7-5.5-1.7-9.2c0-6.9,2.2-12.3,6.5-16.1
					c4.3-3.8,10.2-5.7,17.7-5.7h16l-1.2,9.7h-14.8c-4.1,0-7.3,1.1-9.8,3.2c-2.4,2.1-3.7,5.3-3.7,9.6c0,4.1,1.2,7.4,3.7,9.8
					c2.4,2.4,5.7,3.6,9.8,3.6h15v4.7H637.9z M634.6,954l-0.3-9.7H655v9.7H634.6z M653.2,981.2v-72.8h10.3v72.8H653.2z"/>
			</g>
		</g>
	</g>
	<g class="st1">
		<g>
			<g>
				
					<ellipse transform="matrix(0.9732 -0.2298 0.2298 0.9732 -205.5667 50.482)" class="st2" cx="114" cy="908" rx="64.5" ry="64.5"/>
				<path class="st3" d="M114,844c35.3,0,64,28.7,64,64s-28.7,64-64,64s-64-28.7-64-64S78.7,844,114,844 M114,843
					c-35.9,0-65,29.1-65,65s29.1,65,65,65c35.9,0,65-29.1,65-65S149.9,843,114,843L114,843z"/>
			</g>
		</g>
		<g>
			<g>
				<path class="st3" d="M82.7,941.4v-9.7h1.7c1.3,0,2.5-0.3,3.6-1c1.1-0.7,1.9-2.2,2.6-4.6l1.8-6.7c0.7-2.6,1.6-4.5,2.7-5.8
					c1.1-1.3,2.3-2.2,3.7-2.7c1.4-0.5,2.9-0.7,4.6-0.7h9.8l0.3,3.8c-2.8,0-5,0.2-6.5,0.7c-1.5,0.5-2.6,1.2-3.3,2.2
					c-0.7,1-1.2,2.2-1.6,3.8l-2.6,10.5c-0.8,3.2-2.2,5.7-4.1,7.6c-2,1.9-5.3,2.8-10.1,2.8H82.7z M107.9,909c-1.3,0-3-0.1-4.9-0.2
					c-2-0.1-4-0.5-6.1-1c-2.1-0.6-4.1-1.5-5.9-2.8s-3.3-3.2-4.5-5.6c-1.1-2.4-1.7-5.5-1.7-9.2c0-6.9,2.2-12.3,6.5-16.1
					c4.3-3.8,10.2-5.7,17.7-5.7h16l-1.2,9.7h-14.8c-4.1,0-7.3,1.1-9.8,3.2c-2.4,2.1-3.7,5.3-3.7,9.6c0,4.1,1.2,7.4,3.7,9.8
					c2.4,2.4,5.7,3.6,9.8,3.6h15v4.7H107.9z M104.6,914l-0.3-9.7H125v9.7H104.6z M123.2,941.2v-72.8h10.3v72.8H123.2z"/>
			</g>
		</g>
	</g>
	<g class="st1">
		<g>
			<g>
				
					<ellipse transform="matrix(0.9732 -0.2298 0.2298 0.9732 -64.8896 372.693)" class="st2" cx="1568" cy="465" rx="64.5" ry="64.5"/>
				<path class="st3" d="M1568,401c35.3,0,64,28.7,64,64s-28.7,64-64,64c-35.3,0-64-28.7-64-64S1532.7,401,1568,401 M1568,400
					c-35.9,0-65,29.1-65,65s29.1,65,65,65s65-29.1,65-65S1603.9,400,1568,400L1568,400z"/>
			</g>
		</g>
		<g>
			<g>
				<path class="st3" d="M1536.7,498.4v-9.7h1.7c1.3,0,2.5-0.3,3.6-1c1.1-0.7,1.9-2.2,2.6-4.6l1.8-6.7c0.7-2.6,1.6-4.5,2.7-5.8
					c1.1-1.3,2.3-2.2,3.7-2.7c1.4-0.5,2.9-0.7,4.6-0.7h9.8l0.3,3.8c-2.8,0-5,0.2-6.5,0.7c-1.5,0.5-2.6,1.2-3.3,2.2
					c-0.7,1-1.2,2.2-1.6,3.8l-2.6,10.5c-0.8,3.2-2.2,5.7-4.1,7.6c-2,1.9-5.3,2.8-10.1,2.8H1536.7z M1561.9,466c-1.3,0-3-0.1-4.9-0.2
					c-2-0.1-4-0.5-6.1-1c-2.1-0.6-4.1-1.5-5.9-2.8s-3.3-3.2-4.5-5.6c-1.1-2.4-1.7-5.5-1.7-9.2c0-6.9,2.2-12.3,6.5-16.1
					c4.3-3.8,10.2-5.7,17.7-5.7h16l-1.2,9.7h-14.8c-4.1,0-7.3,1.1-9.8,3.2c-2.4,2.1-3.7,5.3-3.7,9.6c0,4.1,1.2,7.4,3.7,9.8
					c2.4,2.4,5.7,3.6,9.8,3.6h15v4.7H1561.9z M1558.6,471l-0.3-9.7h20.7v9.7H1558.6z M1577.2,498.2v-72.8h10.3v72.8H1577.2z"/>
			</g>
		</g>
	</g>
	<g class="st1">
		<g>
			<g>
				
					<ellipse transform="matrix(0.9732 -0.2298 0.2298 0.9732 7.4828 364.2664)" class="st2" cx="1568" cy="150" rx="64.5" ry="64.5"/>
				<path class="st3" d="M1568,86c35.3,0,64,28.7,64,64s-28.7,64-64,64c-35.3,0-64-28.7-64-64S1532.7,86,1568,86 M1568,85
					c-35.9,0-65,29.1-65,65s29.1,65,65,65s65-29.1,65-65S1603.9,85,1568,85L1568,85z"/>
			</g>
		</g>
		<g>
			<g>
				<path class="st3" d="M1536.7,183.4v-9.7h1.7c1.3,0,2.5-0.3,3.6-1c1.1-0.7,1.9-2.2,2.6-4.6l1.8-6.7c0.7-2.6,1.6-4.5,2.7-5.8
					c1.1-1.3,2.3-2.2,3.7-2.7c1.4-0.5,2.9-0.7,4.6-0.7h9.8l0.3,3.8c-2.8,0-5,0.2-6.5,0.7c-1.5,0.5-2.6,1.2-3.3,2.2
					c-0.7,1-1.2,2.2-1.6,3.8l-2.6,10.5c-0.8,3.2-2.2,5.7-4.1,7.6c-2,1.9-5.3,2.8-10.1,2.8H1536.7z M1561.9,151c-1.3,0-3-0.1-4.9-0.2
					c-2-0.1-4-0.5-6.1-1c-2.1-0.6-4.1-1.5-5.9-2.8s-3.3-3.2-4.5-5.6c-1.1-2.4-1.7-5.5-1.7-9.2c0-6.9,2.2-12.3,6.5-16.1
					c4.3-3.8,10.2-5.7,17.7-5.7h16l-1.2,9.7h-14.8c-4.1,0-7.3,1.1-9.8,3.2c-2.4,2.1-3.7,5.3-3.7,9.6c0,4.1,1.2,7.4,3.7,9.8
					c2.4,2.4,5.7,3.6,9.8,3.6h15v4.7H1561.9z M1558.6,156l-0.3-9.7h20.7v9.7H1558.6z M1577.2,183.2v-72.8h10.3v72.8H1577.2z"/>
			</g>
		</g>
	</g>
	<g class="st1">
		<g>
			<g>
				
					<ellipse transform="matrix(0.9732 -0.2298 0.2298 0.9732 -165.0889 384.1268)" class="st2" cx="1567" cy="901" rx="64.5" ry="64.5"/>
				<path class="st3" d="M1567,837c35.3,0,64,28.7,64,64s-28.7,64-64,64c-35.3,0-64-28.7-64-64S1531.7,837,1567,837 M1567,836
					c-35.9,0-65,29.1-65,65s29.1,65,65,65s65-29.1,65-65S1602.9,836,1567,836L1567,836z"/>
			</g>
		</g>
		<g>
			<g>
				<path class="st3" d="M1535.7,934.4v-9.7h1.7c1.3,0,2.5-0.3,3.6-1c1.1-0.7,1.9-2.2,2.6-4.6l1.8-6.7c0.7-2.6,1.6-4.5,2.7-5.8
					c1.1-1.3,2.3-2.2,3.7-2.7c1.4-0.5,2.9-0.7,4.6-0.7h9.8l0.3,3.8c-2.8,0-5,0.2-6.5,0.7c-1.5,0.5-2.6,1.2-3.3,2.2s-1.2,2.2-1.6,3.8
					l-2.6,10.5c-0.8,3.2-2.2,5.7-4.1,7.6c-2,1.9-5.3,2.8-10.1,2.8H1535.7z M1560.9,902c-1.3,0-3-0.1-4.9-0.2c-2-0.1-4-0.5-6.1-1
					c-2.1-0.6-4.1-1.5-5.9-2.8s-3.3-3.2-4.5-5.6c-1.1-2.4-1.7-5.5-1.7-9.2c0-6.9,2.2-12.3,6.5-16.1c4.3-3.8,10.2-5.7,17.7-5.7h16
					l-1.2,9.7h-14.8c-4.1,0-7.3,1.1-9.8,3.2c-2.4,2.1-3.7,5.3-3.7,9.6c0,4.1,1.2,7.4,3.7,9.8c2.4,2.4,5.7,3.6,9.8,3.6h15v4.7H1560.9
					z M1557.6,907l-0.3-9.7h20.7v9.7H1557.6z M1576.2,934.2v-72.8h10.3v72.8H1576.2z"/>
			</g>
		</g>
	</g>
	<g class="st1">
		<g>
			<g>
				
					<ellipse transform="matrix(0.9732 -0.2298 0.2298 0.9732 -99.7799 203.0356)" class="st2" cx="822" cy="530" rx="64.5" ry="64.5"/>
				<path class="st3" d="M822,466c35.3,0,64,28.7,64,64s-28.7,64-64,64s-64-28.7-64-64S786.7,466,822,466 M822,465
					c-35.9,0-65,29.1-65,65s29.1,65,65,65c35.9,0,65-29.1,65-65S857.9,465,822,465L822,465z"/>
			</g>
		</g>
		<g>
			<g>
				<path class="st3" d="M790.7,563.4v-9.7h1.7c1.3,0,2.5-0.3,3.6-1c1.1-0.7,1.9-2.2,2.6-4.6l1.8-6.7c0.7-2.6,1.6-4.5,2.7-5.8
					c1.1-1.3,2.3-2.2,3.7-2.7c1.4-0.5,2.9-0.7,4.6-0.7h9.8l0.3,3.8c-2.8,0-5,0.2-6.5,0.7c-1.5,0.5-2.6,1.2-3.3,2.2
					c-0.7,1-1.2,2.2-1.6,3.8l-2.6,10.5c-0.8,3.2-2.2,5.7-4.1,7.6c-2,1.9-5.3,2.8-10.1,2.8H790.7z M815.9,531c-1.3,0-3-0.1-4.9-0.2
					c-2-0.1-4-0.5-6.1-1c-2.1-0.6-4.1-1.5-5.9-2.8s-3.3-3.2-4.5-5.6c-1.1-2.4-1.7-5.5-1.7-9.2c0-6.9,2.2-12.3,6.5-16.1
					c4.3-3.8,10.2-5.7,17.7-5.7h16l-1.2,9.7h-14.8c-4.1,0-7.3,1.1-9.8,3.2c-2.4,2.1-3.7,5.3-3.7,9.6c0,4.1,1.2,7.4,3.7,9.8
					c2.4,2.4,5.7,3.6,9.8,3.6h15v4.7H815.9z M812.6,536l-0.3-9.7H833v9.7H812.6z M831.2,563.2v-72.8h10.3v72.8H831.2z"/>
			</g>
		</g>
	</g>
	<g class="st1">
		<g>
			<g>
				
					<ellipse transform="matrix(0.9732 -0.2298 0.2298 0.9732 -115.9108 414.4954)" class="st2" cx="1722" cy="705" rx="64.5" ry="64.5"/>
				<path class="st3" d="M1722,641c35.3,0,64,28.7,64,64s-28.7,64-64,64c-35.3,0-64-28.7-64-64S1686.7,641,1722,641 M1722,640
					c-35.9,0-65,29.1-65,65s29.1,65,65,65s65-29.1,65-65S1757.9,640,1722,640L1722,640z"/>
			</g>
		</g>
		<g>
			<g>
				<path class="st3" d="M1690.7,738.4v-9.7h1.7c1.3,0,2.5-0.3,3.6-1c1.1-0.7,1.9-2.2,2.6-4.6l1.8-6.7c0.7-2.6,1.6-4.5,2.7-5.8
					c1.1-1.3,2.3-2.2,3.7-2.7c1.4-0.5,2.9-0.7,4.6-0.7h9.8l0.3,3.8c-2.8,0-5,0.2-6.5,0.7c-1.5,0.5-2.6,1.2-3.3,2.2s-1.2,2.2-1.6,3.8
					l-2.6,10.5c-0.8,3.2-2.2,5.7-4.1,7.6c-2,1.9-5.3,2.8-10.1,2.8H1690.7z M1715.9,706c-1.3,0-3-0.1-4.9-0.2c-2-0.1-4-0.5-6.1-1
					c-2.1-0.6-4.1-1.5-5.9-2.8s-3.3-3.2-4.5-5.6c-1.1-2.4-1.7-5.5-1.7-9.2c0-6.9,2.2-12.3,6.5-16.1c4.3-3.8,10.2-5.7,17.7-5.7h16
					l-1.2,9.7h-14.8c-4.1,0-7.3,1.1-9.8,3.2c-2.4,2.1-3.7,5.3-3.7,9.6c0,4.1,1.2,7.4,3.7,9.8c2.4,2.4,5.7,3.6,9.8,3.6h15v4.7H1715.9
					z M1712.6,711l-0.3-9.7h20.7v9.7H1712.6z M1731.2,738.2v-72.8h10.3v72.8H1731.2z"/>
			</g>
		</g>
	</g>
	<g class="st1">
		<g>
			<g>
				
					<ellipse transform="matrix(0.9732 -0.2298 0.2298 0.9732 -23.0085 414.3903)" class="st2" cx="1768" cy="306" rx="64.5" ry="64.5"/>
				<path class="st3" d="M1768,242c35.3,0,64,28.7,64,64s-28.7,64-64,64c-35.3,0-64-28.7-64-64S1732.7,242,1768,242 M1768,241
					c-35.9,0-65,29.1-65,65s29.1,65,65,65s65-29.1,65-65S1803.9,241,1768,241L1768,241z"/>
			</g>
		</g>
		<g>
			<g>
				<path class="st3" d="M1736.7,339.4v-9.7h1.7c1.3,0,2.5-0.3,3.6-1c1.1-0.7,1.9-2.2,2.6-4.6l1.8-6.7c0.7-2.6,1.6-4.5,2.7-5.8
					c1.1-1.3,2.3-2.2,3.7-2.7c1.4-0.5,2.9-0.7,4.6-0.7h9.8l0.3,3.8c-2.8,0-5,0.2-6.5,0.7c-1.5,0.5-2.6,1.2-3.3,2.2
					c-0.7,1-1.2,2.2-1.6,3.8l-2.6,10.5c-0.8,3.2-2.2,5.7-4.1,7.6c-2,1.9-5.3,2.8-10.1,2.8H1736.7z M1761.9,307c-1.3,0-3-0.1-4.9-0.2
					c-2-0.1-4-0.5-6.1-1c-2.1-0.6-4.1-1.5-5.9-2.8s-3.3-3.2-4.5-5.6c-1.1-2.4-1.7-5.5-1.7-9.2c0-6.9,2.2-12.3,6.5-16.1
					c4.3-3.8,10.2-5.7,17.7-5.7h16l-1.2,9.7h-14.8c-4.1,0-7.3,1.1-9.8,3.2c-2.4,2.1-3.7,5.3-3.7,9.6c0,4.1,1.2,7.4,3.7,9.8
					c2.4,2.4,5.7,3.6,9.8,3.6h15v4.7H1761.9z M1758.6,312l-0.3-9.7h20.7v9.7H1758.6z M1777.2,339.2v-72.8h10.3v72.8H1777.2z"/>
			</g>
		</g>
	</g>
</g>
<path class="st4" d="M1214,950H706c-20.2,0-36.5-16.3-36.5-36.5v-747c0-20.2,16.3-36.5,36.5-36.5h508c20.2,0,36.5,16.3,36.5,36.5
	v747C1250.5,933.7,1234.2,950,1214,950z"/>
<path class="st5" d="M1065.2,466.5H800.8c-28.4,0-51.3-23-51.3-51.3v-59.3c0-28.4,23-51.3,51.3-51.3h264.3c28.4,0,51.3,23,51.3,51.3
	v59.3C1116.5,443.5,1093.5,466.5,1065.2,466.5z"/>
<path class="st6" d="M1201.9,392.5h-83.9c-0.9,0-1.6-0.7-1.6-1.6v-11.9c0-0.9,0.7-1.6,1.6-1.6h83.9c0.9,0,1.6,0.7,1.6,1.6v11.9
	C1203.5,391.8,1202.8,392.5,1201.9,392.5z"/>
<rect x="895.1" y="519.1" transform="matrix(-0.6331 0.7741 -0.7741 -0.6331 2171.4656 27.7967)" class="st3" width="368.1" height="19"/>
<path class="st3" d="M945.4,817V670.9c0-3.9,3.1-7,7-7H978c3.9,0,7,3.1,7,7V817c0,3.9-3.1,7-7,7h-25.6
	C948.6,824,945.4,820.9,945.4,817z"/>
</svg>
